<?xml version="1.0" encoding="iso-8859-1"?>
<!-- Uploaded to: SVG Repo, www.svgrepo.com, Generator: SVG Repo Mixer Tools -->
<svg height="800px" width="800px" version="1.1" id="Layer_1" xmlns="http://www.w3.org/2000/svg" xmlns:xlink="http://www.w3.org/1999/xlink" 
	 viewBox="0 0 512 512" xml:space="preserve">
<g transform="translate(-1)">
	<path style="fill:#48A0DC;" d="M142.279,88.276V35.31h17.655V0H54.003v35.31h17.655v114.759l-49.364,42.805
		c-7.477,6.63-2.781,18.988,7.212,18.988h42.152V476.69H54.003V512h405.998l0.071-35.31h-17.655V211.862h42.214
		c9.869,0,14.504-12.209,7.124-18.759L288.684,12.959c-17.752-17.09-45.833-17.09-63.576,0L142.279,88.276z"/>
	<path style="fill:#FFFFFF;" d="M354.141,450.207L354.141,450.207c-9.754,9.754-25.556,9.754-35.31,0
		c-9.754-9.754-9.754-25.556,0-35.31l17.655-17.655l17.655,17.655C363.895,424.651,363.895,440.452,354.141,450.207"/>
	<g>
		<path style="fill:#90A3AF;" d="M265.865,256c-4.882,0-8.828-3.955-8.828-8.828v-52.86c0-4.882,3.946-8.828,8.828-8.828
			s8.828,3.946,8.828,8.828v52.86C274.692,252.045,270.746,256,265.865,256"/>
		<path style="fill:#90A3AF;" d="M230.554,203.138c-4.873,0-8.819-3.946-8.828-8.819s3.937-8.828,8.819-8.836l70.621-0.106h0.009
			c4.873,0,8.819,3.946,8.828,8.819c0.009,4.873-3.937,8.828-8.819,8.836l-70.621,0.106H230.554z"/>
	</g>
	<path style="fill:#C8D2DA;" d="M310.003,247.172H142.279v52.966h154.959c7.053,0,12.765,5.711,12.765,12.765v49.028h52.966v-61.793
		C362.968,270.883,339.257,247.172,310.003,247.172"/>
</g>
</svg>